<?xml version="1.0" encoding="UTF-8"?>
<svg xmlns="http://www.w3.org/2000/svg" xmlns:xlink="http://www.w3.org/1999/xlink" width="375pt" height="374.999991pt" viewBox="0 0 375 374.999991" version="1.2">
<defs>
<clipPath id="clip1">
  <path d="M 90 111.160156 L 295 111.160156 L 295 264.160156 L 90 264.160156 Z M 90 111.160156 "/>
</clipPath>
<clipPath id="clip2">
  <path d="M 290 111.160156 L 330.441406 111.160156 L 330.441406 213 L 290 213 Z M 290 111.160156 "/>
</clipPath>
<clipPath id="clip3">
  <path d="M 44.691406 111.160156 L 86 111.160156 L 86 213 L 44.691406 213 Z M 44.691406 111.160156 "/>
</clipPath>
<clipPath id="clip4">
  <path d="M 140 111.160156 L 256 111.160156 L 256 176 L 140 176 Z M 140 111.160156 "/>
</clipPath>
</defs>
<g id="surface1">
<rect x="0" y="0" width="375" height="374.999991" style="fill:rgb(100%,100%,100%);fill-opacity:1;stroke:none;"/>
<rect x="0" y="0" width="375" height="374.999991" style="fill:rgb(100%,100%,100%);fill-opacity:1;stroke:none;"/>
<rect x="0" y="0" width="375" height="374.999991" style="fill:rgb(100%,100%,100%);fill-opacity:1;stroke:none;"/>
<path style=" stroke:none;fill-rule:nonzero;fill:rgb(94.509888%,61.178589%,20.388794%);fill-opacity:1;" d="M 147.34375 117.75 L 230.707031 138.035156 L 189.957031 158.332031 L 140.429688 145.191406 L 147.34375 117.75 "/>
<g clip-path="url(#clip1)" clip-rule="nonzero">
<path style=" stroke:none;fill-rule:nonzero;fill:rgb(93.328857%,49.409485%,20.779419%);fill-opacity:1;" d="M 294.730469 200.9375 L 226.136719 240.089844 L 151.828125 264.320312 L 143.757812 256.570312 L 179.769531 227.945312 L 178.382812 226.890625 L 139.707031 253.535156 L 128.585938 245.148438 L 157.160156 210.496094 L 156.09375 209.6875 L 126.121094 243.285156 L 112.878906 233.308594 L 145.949219 201.242188 L 144.925781 200.476562 L 111.0625 231.9375 L 90.195312 219.226562 L 162.042969 153.042969 L 241.832031 111.476562 L 294.730469 132.394531 L 294.730469 200.9375 "/>
</g>
<g clip-path="url(#clip2)" clip-rule="nonzero">
<path style=" stroke:none;fill-rule:nonzero;fill:rgb(60.389709%,69.018555%,87.838745%);fill-opacity:1;" d="M 330.59375 212.882812 L 290.089844 212.882812 L 290.089844 111.476562 L 330.59375 111.476562 L 330.59375 212.882812 "/>
</g>
<path style=" stroke:none;fill-rule:nonzero;fill:rgb(94.509888%,61.178589%,20.388794%);fill-opacity:1;" d="M 79.316406 196.355469 L 143.46875 240.191406 L 222.277344 262.644531 L 233.039062 255.15625 L 182.734375 224.460938 L 183.816406 223.652344 L 236.195312 252.753906 L 249.871094 241.78125 L 197.867188 208.3125 L 198.515625 207.90625 L 252.40625 239.945312 L 268.519531 227.902344 L 213.601562 195.820312 L 214.078125 195.429688 L 270.578125 226.355469 L 288.316406 212.882812 L 197.332031 160.445312 L 147.34375 117.75 L 79.316406 127.8125 L 79.316406 196.355469 "/>
<g clip-path="url(#clip3)" clip-rule="nonzero">
<path style=" stroke:none;fill-rule:nonzero;fill:rgb(54.899597%,83.139038%,54.899597%);fill-opacity:1;" d="M 85.183594 212.882812 L 44.675781 212.882812 L 44.675781 111.476562 L 85.183594 111.476562 L 85.183594 212.882812 "/>
</g>
<g clip-path="url(#clip4)" clip-rule="nonzero">
<path style=" stroke:none;fill-rule:nonzero;fill:rgb(93.328857%,49.409485%,20.779419%);fill-opacity:1;" d="M 255.289062 153.140625 L 153.542969 175.957031 L 140.429688 160.71875 L 241.832031 111.476562 L 255.289062 153.140625 "/>
</g>
</g>
</svg>
